<svg xmlns="http://www.w3.org/2000/svg" viewBox="0 0 245.05 80.15"><defs><style>.cls-1{fill:none;stroke:#231815;stroke-miterlimit:10;}.cls-2{fill:#231f20;}.cls-3{fill:#231815;}</style></defs><g id="レイヤー_2" data-name="レイヤー 2"><g id="Layer_1" data-name="Layer 1"><path d="M101.61,54.31c0-1,.67-1.39,1.63-1.39s1.59.44,1.59,1.39V77.67a1.89,1.89,0,0,1-2,2.14c-1.47,0-2-.58-2.86-1.94l-9-14.58a77.43,77.43,0,0,1-3.84-7.21c.2,2.17.47,6.9.47,11.9V78.41A1.4,1.4,0,0,1,86,79.81c-1,0-1.64-.48-1.64-1.4V55a1.94,1.94,0,0,1,2.15-2,2.81,2.81,0,0,1,2.75,1.63l8.57,13.9c1.56,2.55,3.47,6.19,4.35,8.09-.2-2.1-.54-7-.54-11.93Z"/><path d="M112.42,70.76c.07,4.19,2.14,6.8,5.81,6.8a4.69,4.69,0,0,0,4.63-3,1.32,1.32,0,0,1,1.22-.85,2.49,2.49,0,0,1,.71.14A1.29,1.29,0,0,1,125.85,75a1.12,1.12,0,0,1-.17.62c-1.09,2.24-3.06,4.48-7.48,4.48-5.58,0-8.81-3.94-8.81-9.82s3.06-10,8.6-10c5,0,7.76,3.88,8.1,8.33v.28c0,1.22-.65,1.86-1.7,1.86Zm10.06-2.48c.38,0,.51-.13.51-.44v-.17c-.41-2.41-1.87-4.89-5-4.89s-5,2.17-5.47,5.5Z"/><path d="M132.89,78.45c0,.92-.62,1.36-1.53,1.36s-1.53-.44-1.53-1.36V54.24c0-.88.61-1.32,1.56-1.32s1.5.37,1.5,1.25v15.1L141.18,61a1.44,1.44,0,0,1,1-.44,1.4,1.4,0,0,1,1.12.51,1.74,1.74,0,0,1,.51,1.12,1.29,1.29,0,0,1-.44.95l-5.74,5.37,6.76,9a1.24,1.24,0,0,1,.24.75,1.61,1.61,0,0,1-.78,1.29,1.71,1.71,0,0,1-.92.24,1.41,1.41,0,0,1-1.16-.55l-6.32-8.84-2.58,2.49Z"/><path d="M164.57,70.15c0,5.92-3.26,10-8.56,10-5.61,0-8.88-4-8.88-10,0-5.88,3.3-9.86,8.81-9.86S164.57,64.24,164.57,70.15Zm-14.31.1c0,4.32,2,7.28,5.54,7.28,3.71,0,5.64-2.89,5.64-7.41,0-4.28-1.93-7.21-5.4-7.21C152.37,62.91,150.26,65.73,150.26,70.25Z"/><path d="M181.88,54.28a1.32,1.32,0,0,1,1.49-1.36c1,0,1.53.44,1.53,1.36V78.45c0,.92-.61,1.36-1.56,1.36s-1.46-.55-1.46-1.26v-.71c0-.38.07-1.09.1-1.57a6.4,6.4,0,0,1-6.25,3.84c-5,0-8.1-3.91-8.1-10,0-5.94,3.1-9.79,8.13-9.79A6.44,6.44,0,0,1,182,64.2c-.06-.78-.13-1.76-.13-2.51ZM170.76,70.12c0,4.45,2,7.34,5.41,7.34S182,74.37,182,70.15s-2-7.2-5.78-7.2C172.73,63,170.76,65.8,170.76,70.12Z"/><path d="M206.32,70.15c0,5.92-3.26,10-8.56,10-5.61,0-8.88-4-8.88-10,0-5.88,3.3-9.86,8.81-9.86S206.32,64.24,206.32,70.15Zm-14.31.1c0,4.32,2,7.28,5.54,7.28,3.71,0,5.65-2.89,5.65-7.41,0-4.28-1.94-7.21-5.41-7.21C194.12,62.91,192,65.73,192,70.25Z"/><path d="M213.36,78.45c0,.92-.61,1.36-1.53,1.36s-1.53-.44-1.53-1.36V54.24c0-.88.62-1.32,1.57-1.32s1.49.37,1.49,1.25v15.1l8.3-8.26a1.42,1.42,0,0,1,1-.44,1.4,1.4,0,0,1,1.12.51,1.74,1.74,0,0,1,.51,1.12,1.33,1.33,0,0,1-.44.95l-5.75,5.37,6.77,9a1.24,1.24,0,0,1,.24.75,1.59,1.59,0,0,1-.79,1.29,1.65,1.65,0,0,1-.91.24,1.39,1.39,0,0,1-1.16-.55L216,70.42l-2.59,2.49Z"/><path d="M245.05,70.15c0,5.92-3.26,10-8.57,10-5.61,0-8.87-4-8.87-10,0-5.88,3.3-9.86,8.8-9.86S245.05,64.24,245.05,70.15Zm-14.31.1c0,4.32,2,7.28,5.54,7.28,3.7,0,5.64-2.89,5.64-7.41,0-4.28-1.94-7.21-5.4-7.21C232.84,62.91,230.74,65.73,230.74,70.25Z"/><path class="cls-1" d="M64.33,27.13a6.08,6.08,0,0,1,2.9.17,1.33,1.33,0,0,1-.38,2.61,1.31,1.31,0,0,1-.38-.06,3.81,3.81,0,0,0-1.58-.12,1.35,1.35,0,0,1-1.57-1A1.32,1.32,0,0,1,64.33,27.13ZM54.24,21.56a23.21,23.21,0,0,0,2.06-4,1.33,1.33,0,1,1,2.48,1A26.2,26.2,0,0,1,56.47,23a1.32,1.32,0,0,1-1.12.6,1.32,1.32,0,0,1-1.11-2.05ZM41.33,13.64a14.74,14.74,0,0,0-2.19.69,1.29,1.29,0,0,1-.51.1,1.33,1.33,0,0,1-.51-2.56A17,17,0,0,1,40.74,11a1.34,1.34,0,0,1,1.6,1A1.33,1.33,0,0,1,41.33,13.64Z"/><path class="cls-2" d="M54.63,23.4a1.34,1.34,0,0,0,.72.21,1.32,1.32,0,0,0,1.12-.6,26.2,26.2,0,0,0,2.31-4.51,1.33,1.33,0,1,0-2.48-1,23.21,23.21,0,0,1-2.06,4A1.33,1.33,0,0,0,54.63,23.4Z"/><path class="cls-2" d="M40.74,11a17,17,0,0,0-2.62.83,1.33,1.33,0,0,0,.51,2.56,1.29,1.29,0,0,0,.51-.1,14.74,14.74,0,0,1,2.19-.69,1.33,1.33,0,0,0,1-1.59A1.34,1.34,0,0,0,40.74,11Z"/></g><g id="レイヤー_2-2" data-name="レイヤー 2"><path class="cls-3" d="M65.43,27a3.49,3.49,0,0,1,2.5.77,1.38,1.38,0,0,1-.11,1.69,1.3,1.3,0,0,1-1.5.32,3.92,3.92,0,0,0-1.61-.06,1.37,1.37,0,0,1-1.25-.69,1.31,1.31,0,0,1,.34-1.69A3.22,3.22,0,0,1,65.43,27Z"/><path class="cls-2" d="M57.28,78.15c-3.76-.06-7.1-5.86-8.81-6.28-6.79-1.63-13.25-4.51-21-9.44S13.21,51.84,9.07,46.28C4.64,40.34,3.4,35.16,5.58,31.71c1.92-3,6.08-4.26,12-3.54a1.5,1.5,0,1,1-.36,3c-4.67-.57-7.92.2-9.15,2.16-1.46,2.3-.23,6.37,3.35,11.18C15.4,49.76,21.63,55.23,29,59.89s15.2,8,21.7,9.28c5.74,1.09,9.86.43,11.28-1.83,1.27-2,.51-5.37-2.16-9.47a1.5,1.5,0,0,1,2.51-1.64,25.58,25.58,0,0,1,3.72,11.38c.12,1.31,1.86,4.29.4,5.92C64.52,75.7,60.89,78.21,57.28,78.15Z"/><path class="cls-2" d="M47.57,77.9l-.47,1.15c.92.12,1.83.23,2.75.32l.18-.44c.39-.93.76-2.08,1.09-3.11-.63-.67-1.42-1.58-2.16-2.29A25.3,25.3,0,0,1,47.57,77.9Z"/><path class="cls-2" d="M75,31.29a1.35,1.35,0,0,0-.88-1c-2.28-.75-2.54-1.51-3.25-3.54a24.4,24.4,0,0,0-2.92-6c-1.45-2.19-4.41-4.59-7.86-6.41C61.3,9,61.24,2.73,59.24,1.59c-1.77-1-3.62.73-5.76,2.75a33.16,33.16,0,0,1-2.94,2.57,39.06,39.06,0,0,0-4.22,3.7c-.38,0-.76,0-1.13,0C45,2,43.85.84,43.4.39A1.33,1.33,0,0,0,42.3,0c-1.73.22-2.79,2.36-4.14,5.07a29.89,29.89,0,0,1-1.83,3.35,14,14,0,0,0-2.19,5.94C28,19.68,23.66,27.85,20.19,34.46A60.89,60.89,0,0,1,15.82,42a11.22,11.22,0,0,1-2.5,2.63c.58.73,1.16,1.4,1.72,2a14.32,14.32,0,0,0,2.89-3,60.72,60.72,0,0,0,4.62-7.94C26,29.15,30.26,21,36.26,16.06l0,0,.07-.07.1-.12a.56.56,0,0,0,.05-.08.57.57,0,0,0,.08-.13.36.36,0,0,0,0-.09,1.21,1.21,0,0,0,0-.14.52.52,0,0,0,0-.11l0-.14v0A11.63,11.63,0,0,1,38.52,10a31,31,0,0,0,2-3.69c.38-.76.91-1.84,1.39-2.63a46.55,46.55,0,0,1,.6,8.32s0,0,0,0v0s0,.06,0,.09a.58.58,0,0,0,0,.14.29.29,0,0,0,0,.1.44.44,0,0,0,.06.16l0,.05a1.31,1.31,0,0,0,1.19.71H44a21.9,21.9,0,0,1,2.8,0h.35l.08,0,.16-.05.09,0,.13-.07.08-.06.13-.11,0,0a40.63,40.63,0,0,1,4.31-3.84,33.41,33.41,0,0,0,3.2-2.78,20.34,20.34,0,0,1,2.56-2.18c.45,1.39.71,5.67-.63,10.59h0l0,.17s0,.06,0,.09v.15s0,.08,0,.11a.42.42,0,0,0,0,.12.5.5,0,0,0,0,.13.84.84,0,0,0,.06.14l0,.09.09.13.06.08.09.08a.47.47,0,0,0,.1.1l.08.05.15.09h0c3.4,1.65,6.45,4,7.78,6a22,22,0,0,1,2.61,5.41c.72,2.07,1.31,3.74,4.14,4.9.37,3.87-1.43,11.95-5.48,15.55l-2.18.58c-6.41,1.65-13,3.37-15.38,12a1.24,1.24,0,0,0,0,.43c.16,2.77.18,4.8.14,6.66.9.22,1.8.39,2.65.52.06-2,0-4.16-.12-7.12,2-6.92,7.29-8.29,13.42-9.87L68,50.56a1.29,1.29,0,0,0,.49-.26C73.62,46,75.93,36,75,31.29Z"/><path class="cls-2" d="M3.18,46.34H0c.48.9,1,1.79,1.52,2.67H3.17a52.12,52.12,0,0,0,6.21-.19,30,30,0,0,1-1.94-2.52C6.18,46.35,5.1,46.34,3.18,46.34Z"/></g></g></svg>