<svg xmlns="http://www.w3.org/2000/svg" viewBox="0 0 100.7 144.87"><defs><style>.cls-1{fill:#cba672;}.cls-2{fill:#fff;}</style></defs><g id="レイヤー_2" data-name="レイヤー 2"><g id="レイヤー_2-2" data-name="レイヤー 2"><path class="cls-1" d="M50.35,144.87s51.5-66.65,50.33-93.35S84.09,12.41,75.52,6.79,54.82,0,50.35,0,33.74,1.17,25.17,6.79,1.19,24.82,0,51.52,50.35,144.87,50.35,144.87Z"/><path class="cls-2" d="M70.53,48.6a1.84,1.84,0,0,1-.47-.06,2.66,2.66,0,0,0-1.13-.1A1.65,1.65,0,0,1,67,47.16a1.63,1.63,0,0,1,1.24-1.94,5.83,5.83,0,0,1,2.75.16,1.58,1.58,0,0,1,1,.79,1.64,1.64,0,0,1-1.44,2.43Zm-1.29-1.18a3.73,3.73,0,0,1,1.1.16.67.67,0,0,0,.81-.44.65.65,0,0,0-.06-.49.62.62,0,0,0-.38-.31,5,5,0,0,0-2.25-.15h0A.64.64,0,0,0,68,47a.66.66,0,0,0,.76.5A2.33,2.33,0,0,1,69.24,47.42Zm-8.62-4.24a1.68,1.68,0,0,1-.9-.26,1.66,1.66,0,0,1-.48-2.28h0A19.64,19.64,0,0,0,61,37.25a1.65,1.65,0,0,1,.87-.91,1.62,1.62,0,0,1,1.26,0A1.65,1.65,0,0,1,64,38.46a22.15,22.15,0,0,1-2,4A1.63,1.63,0,0,1,60.62,43.18Zm-.54-2h0a.65.65,0,1,0,1.08.71,21.23,21.23,0,0,0,2-3.8.65.65,0,0,0-.36-.84.66.66,0,0,0-.5,0,.62.62,0,0,0-.34.35A20.3,20.3,0,0,1,60.08,41.18Zm-13.86-5.9a1.64,1.64,0,0,1-1.52-1,1.62,1.62,0,0,1,0-1.26,1.59,1.59,0,0,1,.89-.89,13.87,13.87,0,0,1,2.34-.74,1.64,1.64,0,0,1,1.75,2.48,1.61,1.61,0,0,1-1,.73,12.22,12.22,0,0,0-1.8.57A1.69,1.69,0,0,1,46.22,35.28Zm2.07-3a.32.32,0,0,0-.14,0A13.83,13.83,0,0,0,46,33a.67.67,0,0,0-.35.35.72.72,0,0,0,0,.5.67.67,0,0,0,.85.35,10.94,10.94,0,0,1,2-.62h0a.65.65,0,0,0-.14-1.28Z"/><path class="cls-2" d="M60,42.5a1.17,1.17,0,0,0,.62.18,1.13,1.13,0,0,0,1-.52,21.55,21.55,0,0,0,2-3.89,1.14,1.14,0,1,0-2.13-.84,19.29,19.29,0,0,1-1.78,3.48A1.14,1.14,0,0,0,60,42.5Z"/><path class="cls-2" d="M48,31.86a12.66,12.66,0,0,0-2.26.71,1.15,1.15,0,0,0,.44,2.21,1.12,1.12,0,0,0,.44-.09,11.16,11.16,0,0,1,1.88-.6,1.14,1.14,0,1,0-.5-2.23Z"/><path class="cls-2" d="M69.3,45.62a3,3,0,0,1,2.15.67,1.19,1.19,0,0,1-.09,1.46,1.14,1.14,0,0,1-1.29.27A3.35,3.35,0,0,0,68.68,48a1.2,1.2,0,0,1-1.08-.59,1.14,1.14,0,0,1,.3-1.46A2.75,2.75,0,0,1,69.3,45.62Z"/><path class="cls-2" d="M61.6,89.08c-3.21-.45-5.43-4.48-6.91-4.84-5.85-1.4-11.41-3.88-18.13-8.13S24.33,67,20.76,62.21c-3.82-5.12-4.89-9.58-3-12.56C19.41,47,23,46,28.13,46.61a1.29,1.29,0,1,1-.31,2.56c-4-.49-6.82.17-7.88,1.86-1.25,2-.2,5.49,2.89,9.63,3.38,4.54,8.75,9.25,15.11,13.27s13.09,6.91,18.69,8c4.95,1,8.49.38,9.72-1.56,1.09-1.74.43-4.64-1.87-8.16a1.29,1.29,0,0,1,2.17-1.41,22.05,22.05,0,0,1,3.2,9.8c.1,1.12,1.58,3.2.33,4.59C68.5,87,64.76,89.53,61.6,89.08Z"/><path class="cls-2" d="M53.92,89.44c-.13.32-.27.64-.4,1,.78.11,1.57.2,2.36.28,0-.13.11-.25.16-.38.33-.8.65-1.78.93-2.68-.54-.57-1.22-1.35-1.85-2A22.65,22.65,0,0,1,53.92,89.44Z"/><path class="cls-2" d="M77.53,49.29a1.15,1.15,0,0,0-.76-.86c-2-.66-2.19-1.31-2.8-3.06a20.44,20.44,0,0,0-2.51-5.17,19.34,19.34,0,0,0-6.77-5.52c1.06-4.57,1-10-.72-11-1.53-.87-3.12.63-5,2.37a27.12,27.12,0,0,1-2.54,2.21,34.47,34.47,0,0,0-3.63,3.19l-1,0c-.16-7.38-1.15-8.38-1.54-8.77a1.16,1.16,0,0,0-.95-.33c-1.49.19-2.41,2-3.56,4.37a25,25,0,0,1-1.58,2.88,12.27,12.27,0,0,0-1.89,5.12c-5.32,4.57-9,11.61-12,17.3a51,51,0,0,1-3.77,6.51,9.72,9.72,0,0,1-2.15,2.27c.5.63,1,1.2,1.48,1.73a12.28,12.28,0,0,0,2.49-2.6,52.65,52.65,0,0,0,4-6.84c3-5.64,6.64-12.65,11.81-16.92l0,0,.06-.06.09-.1a.43.43,0,0,0,0-.07l.07-.11,0-.08a.61.61,0,0,0,0-.12s0-.07,0-.1,0-.08,0-.12v0a10,10,0,0,1,1.53-4.45,25.49,25.49,0,0,0,1.75-3.17c.33-.66.79-1.59,1.2-2.27a40.54,40.54,0,0,1,.52,7.17v.06s0,.06,0,.08a.59.59,0,0,1,0,.13l0,.08.05.14,0,0a1.11,1.11,0,0,0,1,.61h.06a17.66,17.66,0,0,1,2.41,0h.3l.07,0,.14,0,.07,0,.12-.06.07-.06.11-.08v0a34.64,34.64,0,0,1,3.72-3.31,29.28,29.28,0,0,0,2.75-2.39,17.51,17.51,0,0,1,2.21-1.88c.39,1.2.61,4.88-.54,9.12h0a.8.8,0,0,0,0,.15s0,.05,0,.07a.53.53,0,0,0,0,.13v.1s0,.07,0,.1l0,.11s0,.08,0,.12a.3.3,0,0,1,0,.08.76.76,0,0,0,.08.11l.05.07a.46.46,0,0,0,.07.07l.09.09.07,0,.13.08h0a18,18,0,0,1,6.71,5.16,18.56,18.56,0,0,1,2.25,4.65c.62,1.78,1.12,3.22,3.56,4.22.32,3.34-1.23,10.3-4.72,13.4l-1.88.49c-5.52,1.43-11.23,2.91-13.25,10.3a1.16,1.16,0,0,0,0,.37c.14,2.39.15,4.14.11,5.74.78.19,1.56.34,2.29.45,0-1.71,0-3.58-.1-6.13,1.71-6,6.27-7.14,11.55-8.51.72-.18,1.45-.37,2.17-.57a1.19,1.19,0,0,0,.43-.23C76.35,62,78.34,53.33,77.53,49.29Z"/><path class="cls-2" d="M15.68,62.25H13c.41.77.85,1.54,1.31,2.29h1.42A47.12,47.12,0,0,0,21,64.38a23.88,23.88,0,0,1-1.67-2.16C18.27,62.26,17.34,62.26,15.68,62.25Z"/></g></g></svg>