<svg xmlns="http://www.w3.org/2000/svg" viewBox="0 0 164.71 176.42"><defs><style>.cls-1{fill:#191919;opacity:0.2;}.cls-2{fill:#cba672;}.cls-3{fill:#fff;}</style></defs><g id="レイヤー_2" data-name="レイヤー 2"><g id="Layer_8" data-name="Layer 8"><path class="cls-1" d="M149.28,97.6A49.3,49.3,0,1,0,66.16,59.69L61.32,176.05Z"/><path class="cls-2" d="M61.32,176.42S124,95.25,122.61,62.74,102.41,15.11,92,8.27,66.76,0,61.32,0,41.09,1.43,30.66,8.27,1.45,30.23,0,62.74,61.32,176.42,61.32,176.42Z"/><path class="cls-3" d="M85.89,59.19a2.25,2.25,0,0,1-.58-.08A3.17,3.17,0,0,0,84,59a2,2,0,0,1-.84-3.92,7.06,7.06,0,0,1,3.35.19,2,2,0,0,1,1.19,1,2,2,0,0,1,.16,1.53A2,2,0,0,1,85.89,59.19Zm-1.57-1.44a4.87,4.87,0,0,1,1.34.19.79.79,0,0,0,1-.53.78.78,0,0,0-.06-.6.77.77,0,0,0-.47-.38,5.6,5.6,0,0,0-2.73-.17h0a.77.77,0,0,0-.59.93.81.81,0,0,0,.94.61A2.2,2.2,0,0,1,84.32,57.75Zm-10.5-5.16a2,2,0,0,1-1.09-.33,2,2,0,0,1-.59-2.77h0a23.25,23.25,0,0,0,2.12-4.13,2,2,0,0,1,2.6-1.13A2,2,0,0,1,78,46.83a27.19,27.19,0,0,1-2.48,4.84A2,2,0,0,1,73.82,52.59Zm-.66-2.44h0a.79.79,0,0,0,.24,1.09A.81.81,0,0,0,74.49,51a26.76,26.76,0,0,0,2.37-4.62.8.8,0,0,0-.45-1,.78.78,0,0,0-1,.45A24.61,24.61,0,0,1,73.16,50.15ZM56.29,43a2,2,0,0,1-1.85-1.24,2,2,0,0,1,1.08-2.62,17.53,17.53,0,0,1,2.85-.9,2,2,0,0,1,2.4,1.52,2.06,2.06,0,0,1-.26,1.51,2,2,0,0,1-1.26.88,13.35,13.35,0,0,0-2.19.7A2.07,2.07,0,0,1,56.29,43Zm2.52-3.59-.18,0a16,16,0,0,0-2.64.84.77.77,0,0,0-.43.42.81.81,0,0,0,0,.61.79.79,0,0,0,1,.42A14.81,14.81,0,0,1,59,40.93h0a.81.81,0,0,0,.5-.35.84.84,0,0,0,.1-.6A.79.79,0,0,0,58.81,39.37Z"/><path class="cls-3" d="M73.06,51.75a1.35,1.35,0,0,0,.76.23A1.42,1.42,0,0,0,75,51.34a27,27,0,0,0,2.42-4.73,1.4,1.4,0,0,0-2.6-1,23.47,23.47,0,0,1-2.17,4.24A1.4,1.4,0,0,0,73.06,51.75Z"/><path class="cls-3" d="M58.5,38.8a16.31,16.31,0,0,0-2.75.86A1.4,1.4,0,0,0,55,41.49a1.39,1.39,0,0,0,1.29.86,1.23,1.23,0,0,0,.53-.11,14.7,14.7,0,0,1,2.3-.72,1.39,1.39,0,1,0-.62-2.72Z"/><path class="cls-3" d="M84.39,55.56a3.72,3.72,0,0,1,2.63.81,1.45,1.45,0,0,1-.12,1.78,1.39,1.39,0,0,1-1.57.33,4,4,0,0,0-1.7-.06,1.45,1.45,0,0,1-1.3-.73,1.35,1.35,0,0,1,.36-1.77A3.39,3.39,0,0,1,84.39,55.56Z"/><path class="cls-3" d="M75,108.49c-3.9-.56-6.61-5.46-8.41-5.9-7.12-1.71-13.89-4.73-22.08-9.9S29.63,81.58,25.28,75.75c-4.65-6.23-6-11.66-3.66-15.28,2-3.19,6.38-4.47,12.64-3.71a1.57,1.57,0,1,1-.38,3.12c-4.89-.6-8.3.21-9.6,2.27-1.52,2.41-.24,6.68,3.52,11.72C31.92,79.4,38.46,85.14,46.2,90S62.15,98.45,69,99.76c6,1.15,10.34.46,11.84-1.91,1.33-2.12.53-5.64-2.27-9.94a1.58,1.58,0,0,1,2.64-1.72,27.05,27.05,0,0,1,3.9,11.94c.12,1.37,1.92,3.89.39,5.59C83.42,106,78.86,109,75,108.49Z"/><path class="cls-3" d="M65.66,108.92l-.49,1.2q1.44.19,2.88.33c.07-.15.13-.3.19-.45.41-1,.8-2.18,1.14-3.27-.66-.7-1.48-1.65-2.26-2.4A25.6,25.6,0,0,1,65.66,108.92Z"/><path class="cls-3" d="M94.42,60A1.37,1.37,0,0,0,93.49,59c-2.38-.8-2.66-1.6-3.41-3.72A25.35,25.35,0,0,0,87,49c-1.53-2.29-4.63-4.81-8.25-6.72,1.29-5.58,1.22-12.16-.88-13.37-1.86-1.06-3.79.77-6,2.89a33.21,33.21,0,0,1-3.09,2.69,43.21,43.21,0,0,0-4.42,3.89c-.4,0-.8,0-1.19,0-.19-9-1.4-10.21-1.87-10.68a1.41,1.41,0,0,0-1.16-.4c-1.81.23-2.92,2.47-4.33,5.32a29.44,29.44,0,0,1-1.93,3.51,14.7,14.7,0,0,0-2.29,6.23C45.1,47.85,40.58,56.43,37,63.35a62.16,62.16,0,0,1-4.59,7.93A11.73,11.73,0,0,1,29.74,74c.61.77,1.22,1.47,1.8,2.11a15,15,0,0,0,3-3.17,63.71,63.71,0,0,0,4.84-8.33c3.6-6.86,8.09-15.4,14.38-20.6l0,0,.07-.07.11-.12a.41.41,0,0,0,0-.09l.09-.14a.36.36,0,0,1,0-.09.88.88,0,0,0,0-.15.52.52,0,0,0,0-.11.8.8,0,0,0,0-.15v0a12.23,12.23,0,0,1,1.87-5.43,31,31,0,0,0,2.13-3.86c.4-.8,1-1.93,1.46-2.76a50.15,50.15,0,0,1,.63,8.73v.08s0,.06,0,.09,0,.1,0,.15a.49.49,0,0,0,0,.11.52.52,0,0,0,.06.16l0,0a1.35,1.35,0,0,0,1.24.75h.07a22.26,22.26,0,0,1,2.94,0h.37l.09,0,.16-.05.09,0,.15-.07.08-.07.13-.1,0,0a40.11,40.11,0,0,1,4.53-4,38.09,38.09,0,0,0,3.35-2.92,20.74,20.74,0,0,1,2.69-2.29c.47,1.46.74,5.94-.66,11.11h0l0,.18s0,.06,0,.1a.76.76,0,0,0,0,.15v.12l0,.12,0,.14s0,.09.07.14l0,.1a.64.64,0,0,0,.1.13l.06.09.09.09.11.1.08.05.16.1h0c3.57,1.73,6.78,4.2,8.17,6.28a23,23,0,0,1,2.74,5.67c.76,2.17,1.37,3.92,4.34,5.14.38,4.06-1.5,12.54-5.75,16.31l-2.29.6C77,80,70.07,81.77,67.62,90.78a1.38,1.38,0,0,0-.05.45c.17,2.91.19,5,.14,7,1,.23,1.9.41,2.79.54.06-2.08,0-4.36-.13-7.46C72.45,84,78,82.6,84.45,80.94l2.64-.7a1.44,1.44,0,0,0,.52-.27C93,75.49,95.41,65,94.42,60Z"/><path class="cls-3" d="M19.1,75.81H15.77c.5.94,1,1.87,1.59,2.79h1.73a54.84,54.84,0,0,0,6.52-.2,27.35,27.35,0,0,1-2-2.63C22.25,75.82,21.12,75.82,19.1,75.81Z"/></g></g></svg>