<svg xmlns="http://www.w3.org/2000/svg" viewBox="0 0 115.31 156.8"><defs><style>.cls-1{fill:#231815;}.cls-2{fill:#fff;}.cls-3{fill:#231f20;}</style></defs><g id="レイヤー_2" data-name="レイヤー 2"><g id="Layer_1" data-name="Layer 1"><rect class="cls-1" x="57.15" y="114.81" width="1" height="41.99"/></g><g id="レイヤー_2-2" data-name="レイヤー 2"><circle class="cls-2" cx="57.65" cy="57.65" r="57.15"/><path class="cls-1" d="M57.65,115.31a57.66,57.66,0,1,1,57.66-57.66A57.72,57.72,0,0,1,57.65,115.31ZM57.65,1a56.66,56.66,0,1,0,56.66,56.65A56.72,56.72,0,0,0,57.65,1Z"/><path class="cls-1" d="M78.79,49.74a1.84,1.84,0,0,1-.47-.07,2.66,2.66,0,0,0-1.13-.1,1.65,1.65,0,0,1-.69-3.22,5.83,5.83,0,0,1,2.75.16,1.64,1.64,0,0,1,1.11,2.05A1.65,1.65,0,0,1,78.79,49.74ZM77.5,48.55a3.73,3.73,0,0,1,1.1.16.65.65,0,0,0,.8-.44.6.6,0,0,0-.05-.49.65.65,0,0,0-.38-.31,4.73,4.73,0,0,0-2.25-.14h0a.63.63,0,0,0-.48.76.65.65,0,0,0,.76.5A2.33,2.33,0,0,1,77.5,48.55Zm-8.62-4.24a1.68,1.68,0,0,1-.9-.26,1.66,1.66,0,0,1-.48-2.28h0a19.64,19.64,0,0,0,1.74-3.39,1.65,1.65,0,1,1,3.06,1.21,22.82,22.82,0,0,1-2,4A1.63,1.63,0,0,1,68.88,44.31Zm-.54-2h0a.65.65,0,1,0,1.08.71,21.91,21.91,0,0,0,2-3.8.65.65,0,0,0-.86-.83.62.62,0,0,0-.34.35A20.3,20.3,0,0,1,68.34,42.31Zm-13.86-5.9a1.64,1.64,0,0,1-1.52-1,1.65,1.65,0,0,1,.89-2.15,13.87,13.87,0,0,1,2.34-.74,1.65,1.65,0,0,1,2,1.24A1.67,1.67,0,0,1,57.94,35a1.59,1.59,0,0,1-1,.72,12.22,12.22,0,0,0-1.8.57A1.51,1.51,0,0,1,54.48,36.41Zm2.07-2.95-.14,0a13.83,13.83,0,0,0-2.18.68.67.67,0,0,0-.35.35.72.72,0,0,0,0,.5.66.66,0,0,0,.85.35,11.81,11.81,0,0,1,2-.62h0a.65.65,0,0,0,.49-.78A.66.66,0,0,0,56.55,33.46Z"/><path class="cls-3" d="M68.26,43.63a1.17,1.17,0,0,0,.62.18,1.13,1.13,0,0,0,1-.52,21.55,21.55,0,0,0,2-3.89,1.14,1.14,0,0,0-2.13-.84A20,20,0,0,1,67.92,42,1.14,1.14,0,0,0,68.26,43.63Z"/><path class="cls-3" d="M56.3,33A14.53,14.53,0,0,0,54,33.7a1.15,1.15,0,0,0,.44,2.21,1.12,1.12,0,0,0,.44-.09,12.13,12.13,0,0,1,1.88-.59A1.15,1.15,0,1,0,56.3,33Z"/><path class="cls-1" d="M77.56,46.75a3,3,0,0,1,2.15.67,1.19,1.19,0,0,1-.09,1.46,1.14,1.14,0,0,1-1.29.27,3.4,3.4,0,0,0-1.4,0,1.2,1.2,0,0,1-1.07-.59,1.14,1.14,0,0,1,.3-1.46A2.75,2.75,0,0,1,77.56,46.75Z"/><path class="cls-3" d="M69.86,90.21c-3.21-.45-5.43-4.48-6.91-4.83C57.1,84,51.54,81.49,44.82,77.24S32.59,68.12,29,63.34c-3.82-5.12-4.89-9.58-3-12.56,1.66-2.61,5.24-3.66,10.38-3a1.29,1.29,0,1,1-.31,2.56c-4-.49-6.82.17-7.88,1.86-1.25,2-.2,5.49,2.89,9.63C34.47,66.33,39.84,71,46.2,75.06s13.09,6.91,18.69,8c5,.94,8.49.37,9.72-1.57,1.09-1.74.43-4.63-1.87-8.16a1.29,1.29,0,1,1,2.17-1.41,22.05,22.05,0,0,1,3.2,9.8c.1,1.12,1.58,3.2.33,4.59C76.76,88.18,73,90.66,69.86,90.21Z"/><path class="cls-3" d="M62.18,90.57l-.41,1c.79.11,1.58.21,2.37.28l.16-.37c.33-.81.65-1.79.93-2.69-.54-.57-1.22-1.35-1.85-2A22.36,22.36,0,0,1,62.18,90.57Z"/><path class="cls-3" d="M85.79,50.42a1.15,1.15,0,0,0-.76-.86c-2-.65-2.19-1.31-2.8-3.05a20.28,20.28,0,0,0-2.51-5.17A19.25,19.25,0,0,0,73,35.81c1.06-4.57,1-10-.72-11-1.53-.87-3.12.63-5,2.37a27.12,27.12,0,0,1-2.54,2.21,34.47,34.47,0,0,0-3.63,3.19l-1,0C60,25.2,59,24.2,58.59,23.81a1.16,1.16,0,0,0-1-.33c-1.49.19-2.41,2-3.56,4.37a27.86,27.86,0,0,1-1.58,2.89,12.19,12.19,0,0,0-1.89,5.11c-5.32,4.57-9,11.62-12,17.3a51,51,0,0,1-3.77,6.51,9.52,9.52,0,0,1-2.15,2.27c.5.63,1,1.21,1.48,1.73a12.28,12.28,0,0,0,2.49-2.6,52.65,52.65,0,0,0,4-6.84c3-5.64,6.64-12.65,11.81-16.92,0,0,0,0,0,0l.06-.06.09-.1a.43.43,0,0,0,0-.07.41.41,0,0,0,.07-.11l0-.08a.61.61,0,0,0,.05-.12s0-.06,0-.09a.51.51,0,0,1,0-.13v0A10,10,0,0,1,54.38,32a24.79,24.79,0,0,0,1.75-3.17c.33-.66.79-1.59,1.2-2.27a40.54,40.54,0,0,1,.52,7.17v.06s0,.06,0,.08,0,.09,0,.13l0,.08c0,.05,0,.1.05.14l0,0a1.09,1.09,0,0,0,1,.61h.06a17.66,17.66,0,0,1,2.41,0h.3l.07,0,.14,0,.07,0,.12-.06.07-.05.11-.09v0a34.64,34.64,0,0,1,3.72-3.31,27.89,27.89,0,0,0,2.75-2.39A17.51,17.51,0,0,1,71.05,27c.39,1.2.61,4.88-.54,9.12h0a.8.8,0,0,0,0,.15s0,0,0,.08v.12s0,.07,0,.1,0,.07,0,.1l0,.11a.61.61,0,0,0,0,.12l0,.08a.76.76,0,0,0,.08.11l0,.07a.46.46,0,0,0,.07.07l.09.09.07,0a.57.57,0,0,0,.13.08h0a18,18,0,0,1,6.71,5.16,18.89,18.89,0,0,1,2.25,4.65c.62,1.78,1.12,3.22,3.56,4.23.32,3.33-1.23,10.29-4.72,13.39L77,65.37C71.51,66.8,65.8,68.28,63.78,75.68a1.1,1.1,0,0,0,0,.36c.14,2.39.15,4.14.11,5.74.78.19,1.56.34,2.29.45,0-1.71,0-3.58-.1-6.13,1.7-6,6.27-7.14,11.55-8.51.72-.18,1.45-.37,2.17-.57a1.17,1.17,0,0,0,.43-.22C84.61,63.12,86.6,54.46,85.79,50.42Z"/><path class="cls-3" d="M23.94,63.38H21.21c.41.77.85,1.54,1.31,2.29h1.42a44.88,44.88,0,0,0,5.35-.17,23.88,23.88,0,0,1-1.67-2.16C26.53,63.39,25.6,63.39,23.94,63.38Z"/></g></g></svg>