<svg xmlns="http://www.w3.org/2000/svg" viewBox="0 0 206.79 176.42"><defs><style>.cls-1{fill:#191919;opacity:0.2;}.cls-2{fill:#cba672;}.cls-3{fill:#fff;}.cls-4{opacity:0;}</style></defs><g id="レイヤー_2" data-name="レイヤー 2"><g id="Layer_8" data-name="Layer 8"><path class="cls-1" d="M191.36,97.6a49.3,49.3,0,1,0-83.12-37.91l-4.85,116.36Z"/><path class="cls-2" d="M103.39,176.42s62.72-81.17,61.3-113.68-20.2-47.63-30.64-54.47S108.84,0,103.39,0,83.17,1.43,72.74,8.27s-29.21,22-30.64,54.47S103.39,176.42,103.39,176.42Z"/><path class="cls-3" d="M128,59.19a2.25,2.25,0,0,1-.58-.08A3.17,3.17,0,0,0,126,59a2,2,0,0,1-.84-3.92,7.06,7.06,0,0,1,3.35.19,2,2,0,0,1,1.19,1,2,2,0,0,1-1.76,3Zm-1.57-1.44a4.87,4.87,0,0,1,1.34.19.8.8,0,0,0,1-.53.78.78,0,0,0-.06-.6.77.77,0,0,0-.47-.38,5.64,5.64,0,0,0-2.74-.17h0a.77.77,0,0,0-.59.93.8.8,0,0,0,.93.61A2.38,2.38,0,0,1,126.4,57.75Zm-10.5-5.16a2,2,0,0,1-1.09-.33,2,2,0,0,1-.59-2.77h0a23.25,23.25,0,0,0,2.12-4.13,2,2,0,0,1,2.6-1.13,2,2,0,0,1,1.13,2.6,27.87,27.87,0,0,1-2.48,4.84A2,2,0,0,1,115.9,52.59Zm-.66-2.44h0a.8.8,0,0,0,.23,1.09.81.81,0,0,0,1.09-.23,25.42,25.42,0,0,0,2.37-4.62.8.8,0,0,0-.44-1,.83.83,0,0,0-.6,0,.76.76,0,0,0-.42.44A24.61,24.61,0,0,1,115.24,50.15ZM98.37,43a2,2,0,0,1-1.86-1.24,2.05,2.05,0,0,1,0-1.54A2,2,0,0,1,97.6,39.1a17.73,17.73,0,0,1,2.84-.9,2,2,0,0,1,2.4,1.52,2,2,0,0,1-1.51,2.39,13.35,13.35,0,0,0-2.19.7A2.07,2.07,0,0,1,98.37,43Zm2.51-3.59-.17,0a16,16,0,0,0-2.64.84.77.77,0,0,0-.43.42.81.81,0,0,0,0,.61.79.79,0,0,0,1,.42,14.81,14.81,0,0,1,2.39-.75h0a.77.77,0,0,0,.49-.35.79.79,0,0,0,.11-.6A.8.8,0,0,0,100.88,39.37Z"/><path class="cls-3" d="M115.14,51.75a1.35,1.35,0,0,0,.76.23,1.39,1.39,0,0,0,1.17-.64,26.32,26.32,0,0,0,2.43-4.73,1.4,1.4,0,0,0-2.6-1,23.47,23.47,0,0,1-2.17,4.24A1.4,1.4,0,0,0,115.14,51.75Z"/><path class="cls-3" d="M100.58,38.8a16.31,16.31,0,0,0-2.75.86,1.4,1.4,0,0,0-.75,1.83,1.39,1.39,0,0,0,1.29.86,1.23,1.23,0,0,0,.53-.11,14.7,14.7,0,0,1,2.3-.72,1.39,1.39,0,1,0-.62-2.72Z"/><path class="cls-3" d="M126.47,55.56a3.72,3.72,0,0,1,2.63.81,1.47,1.47,0,0,1-.12,1.78,1.39,1.39,0,0,1-1.57.33,4,4,0,0,0-1.7-.06,1.45,1.45,0,0,1-1.3-.73,1.35,1.35,0,0,1,.36-1.77A3.37,3.37,0,0,1,126.47,55.56Z"/><path class="cls-3" d="M117.09,108.49c-3.9-.56-6.61-5.46-8.41-5.9-7.12-1.71-13.89-4.73-22.08-9.9S71.71,81.58,67.36,75.75c-4.65-6.23-6-11.66-3.66-15.28,2-3.19,6.38-4.47,12.64-3.71A1.57,1.57,0,0,1,76,59.88c-4.89-.6-8.3.21-9.6,2.27-1.52,2.41-.24,6.68,3.52,11.72C74,79.4,80.54,85.14,88.28,90s15.94,8.42,22.76,9.73c6,1.15,10.34.46,11.84-1.91,1.33-2.12.52-5.64-2.27-9.94a1.57,1.57,0,1,1,2.63-1.72,27,27,0,0,1,3.91,11.94c.12,1.37,1.92,3.89.39,5.59C125.49,106,120.94,109,117.09,108.49Z"/><path class="cls-3" d="M107.74,108.92l-.49,1.2q1.44.19,2.88.33c.07-.15.13-.3.19-.45.41-1,.8-2.18,1.14-3.27-.66-.7-1.49-1.65-2.26-2.4A27.31,27.31,0,0,1,107.74,108.92Z"/><path class="cls-3" d="M136.5,60a1.37,1.37,0,0,0-.93-1.05c-2.38-.8-2.66-1.6-3.41-3.72a25.35,25.35,0,0,0-3-6.3c-1.53-2.29-4.63-4.81-8.25-6.72,1.29-5.58,1.22-12.16-.88-13.37-1.86-1.06-3.8.77-6,2.89a33.21,33.21,0,0,1-3.09,2.69,44.57,44.57,0,0,0-4.43,3.89c-.39,0-.79,0-1.18,0-.19-9-1.4-10.21-1.87-10.68a1.43,1.43,0,0,0-1.16-.4c-1.81.23-2.93,2.47-4.33,5.32A30.93,30.93,0,0,1,96,36.05a14.7,14.7,0,0,0-2.29,6.23c-6.49,5.57-11,14.15-14.64,21.07a62.31,62.31,0,0,1-4.58,7.93A11.73,11.73,0,0,1,71.82,74c.61.77,1.22,1.47,1.8,2.11a15.28,15.28,0,0,0,3-3.17,63.71,63.71,0,0,0,4.84-8.33c3.6-6.86,8.09-15.4,14.38-20.6l0,0,.08-.07.11-.12.05-.09.09-.14a.36.36,0,0,1,0-.09.88.88,0,0,0,0-.15.52.52,0,0,0,0-.11l0-.15v0a12.23,12.23,0,0,1,1.87-5.43,32.32,32.32,0,0,0,2.13-3.86c.4-.8,1-1.93,1.46-2.76a50.15,50.15,0,0,1,.63,8.73v.08a.29.29,0,0,0,0,.09.77.77,0,0,0,0,.15l0,.11a1.11,1.11,0,0,0,.07.16l0,0a1.34,1.34,0,0,0,1.24.75H104a22.26,22.26,0,0,1,2.94,0h.37l.08,0,.17-.05.09,0,.15-.07.08-.07.13-.1,0,0a40.75,40.75,0,0,1,4.52-4,36.84,36.84,0,0,0,3.36-2.92,20.74,20.74,0,0,1,2.69-2.29c.47,1.46.73,5.94-.67,11.11h0l0,.18s0,.06,0,.1v.15s0,.08,0,.12l0,.12,0,.14.07.14a.42.42,0,0,0,0,.1l.09.13.07.09a.76.76,0,0,0,.09.09l.11.1.08.05.16.1h0c3.57,1.73,6.78,4.2,8.16,6.28a22.74,22.74,0,0,1,2.75,5.67c.75,2.17,1.37,3.92,4.34,5.14.38,4.06-1.5,12.54-5.75,16.31l-2.29.6C119.1,80,112.15,81.77,109.7,90.78a1.38,1.38,0,0,0,0,.45c.17,2.91.18,5,.14,7,.95.23,1.9.41,2.79.54,0-2.08,0-4.36-.13-7.46,2.08-7.26,7.65-8.7,14.08-10.36l2.64-.7a1.52,1.52,0,0,0,.52-.27C135.06,75.49,137.48,65,136.5,60Z"/><path class="cls-3" d="M61.18,75.81H57.85c.5.94,1,1.87,1.59,2.79h1.73a54.84,54.84,0,0,0,6.52-.2,29.07,29.07,0,0,1-2-2.63C64.33,75.82,63.19,75.82,61.18,75.81Z"/><g class="cls-4"><path class="cls-1" d="M15.43,97.6A49.3,49.3,0,1,1,98.55,59.69l4.84,116.36Z"/><path class="cls-2" d="M103.39,176.42S40.68,95.25,42.1,62.74,62.3,15.11,72.74,8.27,98,0,103.39,0s20.23,1.43,30.66,8.27,29.21,22,30.64,54.47S103.39,176.42,103.39,176.42Z"/><path class="cls-3" d="M76.9,57.76a2,2,0,0,1,.16-1.53,2,2,0,0,1,1.19-1,7.06,7.06,0,0,1,3.35-.19A2,2,0,0,1,80.76,59a3.17,3.17,0,0,0-1.36.12,2.25,2.25,0,0,1-.58.08A2,2,0,0,1,76.9,57.76Zm4.09,0a.81.81,0,0,0,.94-.61.77.77,0,0,0-.59-.93h0a5.6,5.6,0,0,0-2.73.17.77.77,0,0,0-.47.38.78.78,0,0,0-.06.6.8.8,0,0,0,1,.53,4.87,4.87,0,0,1,1.34-.19A2.2,2.2,0,0,1,81,57.8Zm8.21-6.13a27.19,27.19,0,0,1-2.48-4.84,2,2,0,0,1,2.67-2.58,2,2,0,0,1,1.06,1.11,23.25,23.25,0,0,0,2.12,4.13h0A2,2,0,0,1,92,52.26a2,2,0,0,1-1.09.33A2,2,0,0,1,89.2,51.67Zm.12-5.86a.78.78,0,0,0-1-.45.8.8,0,0,0-.45,1A26.76,26.76,0,0,0,90.22,51a.81.81,0,0,0,1.09.23.79.79,0,0,0,.24-1.09h0A24.61,24.61,0,0,1,89.32,45.81Zm18.33-3a13.35,13.35,0,0,0-2.19-.7,2,2,0,0,1-1.26-.88,2.06,2.06,0,0,1-.26-1.51,2,2,0,0,1,2.4-1.52,17.53,17.53,0,0,1,2.85.9,2,2,0,0,1,1.08,2.62A2,2,0,0,1,108.42,43,2.07,2.07,0,0,1,107.65,42.81ZM105.13,40a.84.84,0,0,0,.1.6.81.81,0,0,0,.5.35h0a14.81,14.81,0,0,1,2.39.75.79.79,0,0,0,1-.42.81.81,0,0,0,0-.61.77.77,0,0,0-.43-.42,16,16,0,0,0-2.64-.84l-.18,0A.8.8,0,0,0,105.13,40Z"/><path class="cls-3" d="M91.65,51.75a1.35,1.35,0,0,1-.76.23,1.42,1.42,0,0,1-1.18-.64,27,27,0,0,1-2.42-4.73,1.4,1.4,0,0,1,2.6-1,23.47,23.47,0,0,0,2.17,4.24A1.4,1.4,0,0,1,91.65,51.75Z"/><path class="cls-3" d="M106.21,38.8a16.31,16.31,0,0,1,2.75.86,1.4,1.4,0,0,1,.75,1.83,1.39,1.39,0,0,1-1.29.86,1.23,1.23,0,0,1-.53-.11,14.7,14.7,0,0,0-2.3-.72,1.39,1.39,0,0,1,.62-2.72Z"/><path class="cls-3" d="M80.32,55.56a3.72,3.72,0,0,0-2.63.81,1.45,1.45,0,0,0,.12,1.78,1.39,1.39,0,0,0,1.57.33,4,4,0,0,1,1.7-.06,1.45,1.45,0,0,0,1.3-.73A1.35,1.35,0,0,0,82,55.92,3.37,3.37,0,0,0,80.32,55.56Z"/><path class="cls-3" d="M89.7,108.49c3.9-.56,6.61-5.46,8.41-5.9,7.12-1.71,13.89-4.73,22.08-9.9s14.89-11.11,19.24-16.94c4.65-6.23,5.95-11.66,3.66-15.28-2-3.19-6.38-4.47-12.64-3.71a1.57,1.57,0,1,0,.38,3.12c4.89-.6,8.3.21,9.6,2.27,1.52,2.41.24,6.68-3.52,11.72-4.12,5.53-10.66,11.27-18.4,16.16s-16,8.42-22.76,9.73c-6,1.15-10.34.46-11.84-1.91-1.33-2.12-.53-5.64,2.27-9.94a1.58,1.58,0,0,0-2.64-1.72,27.05,27.05,0,0,0-3.9,11.94c-.12,1.37-1.92,3.89-.39,5.59C81.29,106,85.85,109,89.7,108.49Z"/><path class="cls-3" d="M99.05,108.92l.49,1.2q-1.44.19-2.88.33c-.07-.15-.13-.3-.19-.45-.41-1-.8-2.18-1.14-3.27.66-.7,1.48-1.65,2.26-2.4A25.6,25.6,0,0,0,99.05,108.92Z"/><path class="cls-3" d="M70.29,60A1.37,1.37,0,0,1,71.22,59c2.38-.8,2.66-1.6,3.41-3.72A25.35,25.35,0,0,1,77.68,49c1.53-2.29,4.63-4.81,8.25-6.72-1.29-5.58-1.22-12.16.88-13.37,1.86-1.06,3.79.77,6,2.89a33.21,33.21,0,0,0,3.09,2.69,43.21,43.21,0,0,1,4.42,3.89c.4,0,.8,0,1.19,0,.19-9,1.4-10.21,1.87-10.68a1.41,1.41,0,0,1,1.16-.4c1.81.23,2.92,2.47,4.33,5.32a29.44,29.44,0,0,0,1.93,3.51,14.7,14.7,0,0,1,2.29,6.23c6.48,5.57,11,14.15,14.63,21.07a62.16,62.16,0,0,0,4.59,7.93A11.73,11.73,0,0,0,135,74c-.61.77-1.22,1.47-1.8,2.11a15,15,0,0,1-3-3.17,63.71,63.71,0,0,1-4.84-8.33c-3.6-6.86-8.09-15.4-14.38-20.6l0,0-.07-.07-.11-.12a.41.41,0,0,1,0-.09l-.09-.14a.36.36,0,0,0,0-.09.88.88,0,0,1-.05-.15.52.52,0,0,1,0-.11.8.8,0,0,1,0-.15v0a12.23,12.23,0,0,0-1.87-5.43,31,31,0,0,1-2.13-3.86c-.4-.8-1-1.93-1.46-2.76a50.15,50.15,0,0,0-.63,8.73v.08a.29.29,0,0,1,0,.09s0,.1,0,.15a.49.49,0,0,1,0,.11.52.52,0,0,1-.06.16l0,0a1.35,1.35,0,0,1-1.24.75h-.07a22.26,22.26,0,0,0-2.94,0h-.37l-.09,0-.16-.05-.09,0L99,40.93,99,40.86l-.13-.1,0,0a40.11,40.11,0,0,0-4.53-4,38.09,38.09,0,0,1-3.35-2.92,20.74,20.74,0,0,0-2.69-2.29c-.47,1.46-.74,5.94.66,11.11h0l0,.18s0,.06,0,.1a.76.76,0,0,1,0,.15v.12l0,.12,0,.14-.07.14,0,.1a.64.64,0,0,1-.1.13l-.06.09-.09.09-.11.1-.08.05-.16.1h0C84.6,46,81.39,48.43,80,50.51a23,23,0,0,0-2.74,5.67c-.76,2.17-1.37,3.92-4.34,5.14-.38,4.06,1.5,12.54,5.75,16.31l2.29.6C87.68,80,94.64,81.77,97.09,90.78a1.38,1.38,0,0,1,0,.45c-.17,2.91-.19,5-.14,7-1,.23-1.9.41-2.79.54-.06-2.08,0-4.36.13-7.46C92.26,84,86.69,82.6,80.26,80.94l-2.64-.7A1.44,1.44,0,0,1,77.1,80C71.73,75.49,69.3,65,70.29,60Z"/><path class="cls-3" d="M145.61,75.81h3.33c-.5.94-1,1.87-1.59,2.79h-1.73a54.84,54.84,0,0,1-6.52-.2,29.07,29.07,0,0,0,2-2.63C142.46,75.82,143.59,75.82,145.61,75.81Z"/></g></g></g></svg>